<svg fill="none" height="120" viewBox="0 0 120 120" width="120" xmlns="http://www.w3.org/2000/svg" xmlns:xlink="http://www.w3.org/1999/xlink"><clipPath id="a"><path d="m16.4331 17.5796h27.5159v25.2229h-27.5159z"/></clipPath><path d="m0 0h60.382v60.3822h-60.382z" fill="#d7e0e2"/><path d="m0 0h120v120h-120z" fill="#d7e0e2"/><g clip-path="url(#a)"><path clip-rule="evenodd" d="m30.1838 24.1166c-.8538 0-1.5373-.6739-1.5373-1.5006v-3.0383c0-1.1009-.9079-1.9981-2.0423-1.9981-.469 0-.8979.1743-1.2446.4408-1.3308 1.0245-3.1326 1.3183-4.7541.6934-1.3849-.5289-3.0003-.0196-3.7679 1.2792-.7596 1.3027-.4149 2.9227.7456 3.8317 1.3628 1.0598 2.0062 2.7308 1.7657 4.3665-.0621.4309-.002.8795.2345 1.2831.5692.9481 1.8178 1.2811 2.7879.7287l2.6977-1.5241c.7315-.4133 1.6695-.1645 2.0924.5525.4189.7189.1684 1.6318-.5672 2.0451l-2.6917 1.5221c-.976.5426-1.3087 1.7748-.7415 2.7249.2344.4035.6072.6758 1.0121.8345 1.5753.621 2.7358 2.0001 2.9883 3.6828.2245 1.4398 1.4851 2.5388 3.0224 2.5388 1.5352 0 2.7939-1.099 3.0124-2.5388.2625-1.6827 1.425-3.0618 2.9923-3.6828.4129-.1587.7816-.431 1.0161-.8345.5652-.9501.2325-2.1823-.7495-2.7249l-2.6937-1.5221c-.7316-.4133-.9821-1.3262-.5572-2.0451.4229-.717 1.3609-.9658 2.0904-.5525l2.6917 1.5241c.9801.5524 2.2307.2194 2.7979-.7287.2285-.4036.2926-.8522.2285-1.2831-.2405-1.6357.3988-3.3067 1.7617-4.3665 1.1625-.909 1.5212-2.529.7496-3.8317-.7696-1.2988-2.375-1.8081-3.768-1.2792-1.6234.6249-3.4212.3311-4.752-.6934-.3447-.2665-.7696-.4408-1.2527-.4408-1.1203 0-2.0363.8972-2.0363 1.9981v3.0383c0 .8267-.6874 1.5006-1.5312 1.5006" fill="#668494" fill-rule="evenodd"/></g><path d="m59.6179 0h60.382v30.1911h-60.382z" fill="#668494"/><path d="m59.6177 29.8089h60.382v30.1911h-60.382z" fill="#9db3bf"/><path d="m29.8093 59.6178h59.6177v30.5733h-59.6177z" fill="#f0f2f3"/><path d="m0 59.6178h30.191v30.3846h-30.191z" fill="#668494"/><path d="m29.8093 89.8089h30.5732v30.1911h-30.5732z" fill="#9db3bf"/><path d="m0 89.8089h30.191v30.1911h-30.191z" fill="#d7e0e2"/><path d="m59.6177 89.8089h30.191v30.1911h-30.191z" fill="#9db3bf"/><path d="m89.0442 59.6178h30.9553v60.3822h-30.9553z" fill="#668494"/></svg>